<?xml version="1.0" encoding="utf-8"?>
<!-- Generator: Adobe Illustrator 27.2.0, SVG Export Plug-In . SVG Version: 6.00 Build 0)  -->
<svg version="1.1" id="Layer_1" xmlns="http://www.w3.org/2000/svg" xmlns:xlink="http://www.w3.org/1999/xlink" x="0px" y="0px"
	 viewBox="0 0 126.4 215.8" style="enable-background:new 0 0 126.4 215.8;" xml:space="preserve">
<style type="text/css">
	.st0{fill:#00A651;}
	.st1{fill:#010101;}
</style>
<path d="M37.3,168.9c1.8,0,3.2,0.5,4.2,1.6c1,1.1,1.5,2.5,1.5,4.4c0,1.2-0.2,2.2-0.7,3.1c-0.5,0.9-1.1,1.6-2,2.1
	c-0.9,0.5-1.9,0.8-3,0.8h-5c-0.2,0-0.4,0-0.5-0.1c-0.1-0.1-0.1-0.3-0.1-0.5v-9.4c0-0.4,0-0.7-0.1-0.8c-0.1-0.2-0.4-0.4-0.8-0.7
	c-0.1,0-0.1-0.1-0.1-0.2V169c0-0.1,0.1-0.2,0.2-0.2H37.3z M36.5,179.9c0.1,0.1,0.2,0.1,0.3,0.1c0.1,0,0.2,0,0.3-0.1
	c0.1-0.1,0.1-0.2,0.1-0.3v-9.4c0-0.1,0-0.2-0.1-0.3c-0.1-0.1-0.1-0.1-0.3-0.1c-0.2,0-0.3,0-0.3,0.1V179.9z"/>
<path d="M80.1,170.1c0-0.4-0.1-0.7-0.2-1c-0.1-0.2-0.3-0.4-0.7-0.6c-0.1,0-0.1-0.1-0.2-0.1c0,0,0-0.1,0-0.1v-0.2
	c0-0.1,0.1-0.2,0.2-0.2h4.8c0.2,0,0.4,0,0.5,0.1c0.1,0.1,0.1,0.2,0.1,0.4v9.7c0,0.2,0,0.3,0.1,0.4c0,0.1,0.1,0.1,0.2,0.1
	c0.1,0,0.2,0,0.2-0.1c0-0.1,0.1-0.3,0.1-0.6c0-0.2,0-0.3,0.1-0.4c0,0,0.1-0.1,0.1-0.1h0.3c0.1,0,0.1,0,0.2,0.1c0,0.1,0,0.2,0,0.4
	c0,1-0.3,1.7-0.8,2.2c-0.5,0.5-1.3,0.8-2.2,0.8c-0.9,0-1.6-0.3-2.1-0.8c-0.5-0.5-0.8-1.3-0.8-2.3V170.1z"/>
<path class="st0" d="M37.3,190.6c1.8,0,3.2,0.5,4.2,1.6c1,1.1,1.5,2.5,1.5,4.4c0,1.2-0.2,2.2-0.7,3.1c-0.5,0.9-1.1,1.6-2,2.1
	c-0.9,0.5-1.9,0.8-3,0.8h-5c-0.2,0-0.4,0-0.5-0.1c-0.1-0.1-0.1-0.3-0.1-0.5v-9.4c0-0.4,0-0.7-0.1-0.8c-0.1-0.2-0.4-0.4-0.8-0.7
	c-0.1,0-0.1-0.1-0.1-0.2v-0.2c0-0.1,0.1-0.2,0.2-0.2H37.3z M36.5,201.6c0.1,0.1,0.2,0.1,0.3,0.1c0.1,0,0.2,0,0.3-0.1
	c0.1-0.1,0.1-0.2,0.1-0.3v-9.4c0-0.1,0-0.2-0.1-0.3c-0.1-0.1-0.1-0.1-0.3-0.1c-0.2,0-0.3,0-0.3,0.1V201.6z"/>
<circle cx="49.1" cy="176" r="4.9"/>
<circle cx="60.8" cy="198" r="4.9"/>
<circle cx="49.6" cy="198" r="4.9"/>
<path d="M62.3,180.7h-4.5c-1.4,0-2.4-1.1-2.4-2.4v-4.5c0-1.4,1.1-2.4,2.4-2.4h4.5c1.4,0,2.4,1.1,2.4,2.4v4.5
	C64.7,179.6,63.6,180.7,62.3,180.7z"/>
<path class="st0" d="M67.5,178.9l0.8,1.4c0,0,0,0,0,0l0.3,0.5h6.1l2.5-4.4V176l0,0l0,0v-7.5c0-0.2,0-0.4-0.1-0.4
	c-0.1-0.1-0.3-0.1-0.5-0.1h-4.7c-0.1,0-0.2,0.1-0.2,0.2v0.2c0,0,0,0.1,0,0.1c0,0,0.1,0.1,0.2,0.1c0.3,0.2,0.6,0.4,0.7,0.6
	c0.1,0.2,0.2,0.6,0.2,1v0.9h-4l-2.9,5L67.5,178.9C67.5,178.9,67.5,178.9,67.5,178.9z"/>
<path d="M98,171.7h-5.1c0,0,0,0,0,0h-3v0c-0.1,0-0.2,0-0.4,0h-2.8c-0.1,0-0.2,0.1-0.2,0.2v0.2c0,0.1,0.1,0.2,0.2,0.2
	c0.3,0.2,0.4,0.3,0.6,0.4c0.1,0.1,0.2,0.3,0.3,0.5l2.4,6.3c0.1,0.4,0.3,0.7,0.4,0.8c0.1,0.1,0.4,0.2,0.9,0.3
	c0.8,0.1,1.3,0.4,1.7,0.8c0.4,0.4,0.6,0.8,0.6,1.4c0,0.5-0.2,0.9-0.5,1.2c-0.3,0.3-0.7,0.5-1.2,0.5c-0.3,0-0.4-0.1-0.4-0.3
	c0-0.1,0-0.1,0-0.2c0.5,0,0.8-0.1,1.1-0.3c0.3-0.2,0.4-0.5,0.4-0.9c0-0.5-0.2-0.9-0.6-1.2c-0.4-0.3-1-0.5-1.6-0.5
	c-0.7,0-1.3,0.2-1.7,0.5c-0.4,0.4-0.7,0.8-0.7,1.4c0,0.7,0.3,1.2,0.8,1.6c0.5,0.4,1.3,0.6,2.2,0.6c0.6,0,1.2-0.1,1.6-0.3
	c0.5-0.2,0.9-0.6,1.2-1.1c0.4-0.5,0.8-1.3,1.1-2.2c1.1-2.6,1.9-4.8,2.5-6.4c0.6-1.7,0.9-2.7,0.9-3C98.6,171.9,98.4,171.7,98,171.7z"
	/>
<path class="st1" d="M39.9,131.1c-2.6-0.1-5.5-0.1-8.1-0.2l-13.5-0.3c-1.3,0-6.4,0-7.3-0.3c-0.3-0.3-0.2-2.8-0.2-3.5l0-6.2
	l-0.1-23.3l-0.6-73.1C10.1,19.1,10,13.9,9.9,8.8c0-0.9,0-2.3,0-3.3c0.1-0.1,0.2-0.2,0.3-0.3c0.5-0.1,3,0,3.7,0l8.2,0.1l30.2,0.3
	l46.3,0.1l13.8,0c2,0,4.4-0.1,6.3,0.2c0.3,0,0.7,0.2,0.8,0.5c0.4,0.8-0.3,0.7-0.5,1.2c-0.1,0.2,0,1.1,0,1.3l0.1,17.2
	c0.2,27.2,0.2,54.4,0,81.6l-0.1,16.1c0,1.1,0.1,6.9-0.2,7.6c-0.1,0.1-0.3,0.2-0.5,0.2c-1-0.1-2.1-0.1-3.1-0.1c-4-0.1-8-0.5-12-0.6
	c-2.9-0.1-5.8,0.1-8.7,0.2c-2.1,0-4.2,0-6.4,0c-0.4,1.4-3.1,9.8-3.8,10.9c0,1.8,0.2,9.3-0.3,10.3c-0.5,0.3-2.6,0.1-3.3,0.1
	c0,1.7,0,3.5,0,5.1c2.4-0.9,4.8-1.6,7.3-1.8c4.3-0.5,9.7,0.1,13.9,1.5c0.4,0.1,0.6,0.4,0.7,0.7c0,0.4,0,0.2-0.2,0.5
	c-0.6,0.2-5.2,0.2-6,0.2l-11.1,0.1l-34.9,0c-3.7,0-7.3-0.1-11-0.1l-8.7,0.1c-1.1,0-2.2,0-3.2,0c-0.3,0-0.4-0.4-0.4-0.6
	c0.3-0.9,3.8-1.7,4.8-2c5.1-1.4,10.5-1.5,15.7-0.3c1.1,0.3,2.2,0.6,3.2,1c0.2-1.2,0.2-3.1,0.2-4.4c-1.1,0-4.4,0.1-5.1-0.2
	c-0.5-0.7-1-8.8-1.1-10.3C43.7,140.3,40.7,133,39.9,131.1z M11.3,6.5l0.7,75l0.2,33.4c0,4.7,0.1,9.6,0,14.3c5.6,0.2,11.4,0.2,17,0.3
	l6.8,0.1c1.1,0,2.5,0.1,3.6,0.1c-0.3-0.8-0.8-2.1-1.1-2.9c-7.5-0.3-15.1-0.2-22.6-0.5c-0.3,0-0.7-0.1-1-0.2c-0.2-0.8-0.2-6-0.2-7.1
	l0-18l-0.2-66c0-8.4-0.1-16.7-0.3-25c0-0.2,0.1-0.7,0.4-0.7c1.2,0,2.4,0,3.5,0l16.9,0.1c19.9,0.1,39.7,0.1,59.6,0l12.2-0.1
	c1.6,0,7.1-0.2,8.2,0.3c0.4,0.6,0.3,4.6,0.2,5.5l0.2,90.4c0.1,5.9,0.1,11.7,0.1,17.6c0,0.8-0.1,1.8,0,2.6c0,0.1,0.8,0.5,0.3,1.2
	c-0.9,0.1-1.8,0-2.7,0c-1.3,0-2.6,0-3.9,0l-19.8,0c-0.2,0.9-0.4,1.8-0.6,2.7c7.1,0,14.2-0.5,21.3,0.1c2.7,0.2,5.2,0.2,7.8,0.3
	c0.1-10.2,0.2-20.4,0.1-30.6l0-59.2c-0.1-11-0.3-22.3-0.2-33.2C116,6.9,113.8,7,112,7l-9.8,0L75.1,7L33.6,6.7
	c-5-0.1-9.9-0.1-14.9-0.1C16.5,6.5,13.4,6.4,11.3,6.5z M15.5,10.8c0.1,5.9,0.1,12,0.1,18l0.3,65.6l0,22.1c0,2.7-0.1,6,0,8.6
	l13.5,0.3c2.8,0.1,5.7,0.2,8.5,0.2c-2.2-5.7-4-11.6-5.4-17.5c-0.3-1.4-0.9-4-1.1-5.4c-0.4-5.3,0-11.1,2-16.1
	c2.2-5.4,7.3-8.5,12-11.4c2.2-1.4,4.3-1.7,5-4.4c-1,0.7-2.2,1.6-3.5,1.6c-0.4,0-0.7-0.7-0.5-1c1.1-1.4,1.6-2,2.2-3.7
	c-1.7,0.5-3.9,1.1-2.3-1.6c0.5-1.1,1.1-4.1,0.5-5.2c-0.9-0.2-3.4,5.1-5.1,3c-0.1-0.1-0.1-0.2-0.1-0.4c0.5-1.1,2.3-0.4,1.8-2.9
	c-0.8,0.7-2.4,2.2-3.5,1.4c-0.6-1.1,0.8-1.2,1.4-1.4c0.9-0.4,2.2-2.9,1.6-3.8c-0.3,0.2-0.8,0.8-1.2,1c-1,0.7-2.3,1.4-3.5,1.3
	c-0.5,0-0.5-0.8-0.5-1.1c0.2-0.2,0.7-0.3,1.1-0.4c2.1-0.4,2.5-2.6,2.6-4.4c-0.8,1.5-1.6,2.4-3.3,3c-0.6,0.2-2.1,0.5-2.6,0.2
	c-0.2-0.1-0.3-0.4-0.4-0.6c0.3-1.4,4.8,0.5,5.2-4.5c-1.5,1.3-2.7,1.7-4.7,1.7c-0.5,0-1.1-0.3-1.2-0.9c0.6-1.5,4.8,0.8,5.1-3.7
	c-0.7,1.1-1.6,1.9-2.9,2.2c-0.7,0.1-1.5,0.2-2.1-0.3c-0.2-0.1-0.3-0.3-0.4-0.5c0-0.1,0-0.2,0.1-0.3c0.8-0.9,3.4,0.8,4.5-2.9
	c-0.6,0.2-1.3,0.4-2,0.4c-1.2-0.1-2.3-0.1-2.4-1.5l0-0.2c-2.7-1.2-1.2-1.3-1-3.2c0-0.3-0.9-0.8-0.7-1.3c0.3-0.8,0.6-1.2,0.9-2l0-0.1
	c-1-0.2-2.3-0.5-2.5-1.7c0.3-0.9,1.4-0.1,1.9,0.2c6.9,0,7.2-12.2,9-17c0.8-2.3,2.4-4.7,4.3-6.1c1.6-1.2,3.4-1.8,5.4-1.9
	c3.2,0,5,1,7,3.4c1.6-2.2,2.2-2.8,4.4-4.4c-1.7,0.1-3.5,0-5.1,0l-7.2,0l-25.6,0l-6.2,0C18.2,10.8,16.6,10.7,15.5,10.8z M70.2,10.9
	c4.6,2.5,7.9,6.3,9.7,11.2c0.4,1.2,0.6,2.7,0.9,4c0.7,2.9,0.9,6.8,3.5,8.6c1,0.6,2.1,0.1,3.1,0.1c0.2,0,0.3,0.7,0.1,0.9
	c-2.1,1.5-5.5,2.3-8,2.8c0.3,0.2,0.5,0.4,0.9,0.3c0.7,0,0.9,0.6,1.5,0.9c1.1,0.5,2.3,0.9,3.5,0.9c0.4,0,1.4-0.1,1.6,0.3
	c0.6,1.5-2.2,0.9-2.7,0.9c-1.1-0.1-1.9-0.4-2.8-0.8l0.1,1.1l0.1,0.1c1.6,1.2,3.4,1.6,5.2,2.1c0.4,0.1,0.4,0.6,0.2,0.9
	c-0.9,0.8-4.5-1-5.4-1.5L81.5,45c1,0.9,2.2,1.7,3.5,2.3c0.7,0.4,2,0.5,2.2,1.4c-0.3,1-1.5,0.4-2.1,0.1c-0.9-0.4-1.8-0.9-2.6-1.4
	c-0.3-0.2-1-0.8-1.2-0.8c-0.4,0.9,1.2,1.4,1.6,1.8c0.5,0.6,4.6,2.1,4.7,2.2c0.9,2.6-4.8-0.8-5.3-1.2c-0.6-0.4-1.1-0.8-1.6-1.2
	c-0.5,1.2-0.6,1.7-1.7,2.4l0,0.1c0.2,1.3,1,3.3,2.1,4.2c0.4,0.4,1,0.2,1.2,0.3c0.8,0.1,2.5-2.5,3.1-1.9c1.1,1.3-0.7,4.6-1.6,5.5
	c-1.6,1.5-3,1.8-4.9,2.1l0.1,0.1c0.3,0.3,0.4,0.4,0.7,0.6c0.6,0.4,2,0.6,2.1,1.5c-0.1,0.2-0.2,0.4-0.4,0.5c-1.9,0.3-3.2-0.3-4.3-1.8
	c0.5,1.5,1,3,2.3,4.1c0.5,0.4,1.7,0.7,1.4,1.6c-0.1,0.3-0.7,0.5-1,0.5c-2,0.4-3.6,0.5-5.6-0.1c3,3.1,5.6,4.4,8.9,6.7
	c5.2,3.6,8.9,9.7,10.2,15.8c1.5,7,0.1,15.9-1,22.9c-0.6,3.9-1.5,8.4-2.4,12.3c4.2,0.1,8.4,0.1,12.5,0c4-0.1,8-0.4,11.9-0.5
	c0.2-8.8,0-18.1-0.1-26.9l-0.1-42.6l0-30.5c0-4.7,0.1-9.8-0.1-14.5c-9.3-0.1-19,0-28.3,0.1l-10.1,0.1C73.9,10.8,71.5,10.8,70.2,10.9
	z M69.9,21.8c-2.1,0.2-3.5,0.7-5.3,1.9c-1,0.7-2.1,2-3.4,2.3c-1.1,0.2-2.4-0.7-3.4-1.1c-2.9-1.2-6.2-2.2-8.6,0.6
	c-1.8,2.1-1.1,3.5-0.7,5.9c0.5,3.1,0.4,6.6-1,9.5c0.2,0.7,0.8,3.8,0.6,4.4c-1.5,1.7-1.5-1.8-1.9-2.4c-0.3,0-0.6,0.1-0.8,0.2
	c-0.5,0.1-1.4-0.3-1.7,0.2c-0.6,1-0.6,2.7-0.4,3.8c0.6,2.9,1.9,5.2,5,5.7c-0.1-0.7-0.7-3.2-0.4-3.8c0.3-0.2,0.9-0.3,1,0.1
	c0.9,3.4,1.3,6.9,2.7,10.1c1,1.9,2.5,2.5,3.8,4.1c1.3,1.5,2.3,4.3,3.6,5.7c1.8,2,7.1,1.6,9.3,0.7c1.1-2.3,1.6-5,2.9-7.1
	c0.9-1.5,2.9-2.2,3.6-3.8c0.9-2.2,0.3-5,0.4-7.3c0.4-4.3,1.4-8.6,1.4-13c-3.4-1.9-4.9-3.1-4.2-7.3c0.4-2.6,0-5.4-1.2-7.7
	C70.9,22.7,70.8,21.8,69.9,21.8z M78,39.3c-0.2,3.6-0.7,7.1-1.3,10.7c0.7-0.2,1.1-0.2,1.7-0.7C80,47.5,81.8,39.4,78,39.3z M72,63.8
	c-0.5,1.2-2.1,6.1-2.7,6.6c-1.9,1.9-7.6,1.5-10,0.5c-1.8-0.8-3.1-4.1-4.2-5.9c-0.1,1.5-0.5,12.8,0,13.3c0,0,0,0,0,0
	c0.7,0.9,1.4,2,2.1,2.9c2.2,2.6,7,5.3,10.2,2.9c2-1.5,3-4.1,3.9-6.3c0.7-1.8,0.7-2.2,0.7-4.1l0-4.2C72,68,72.2,65.3,72,63.8L72,63.8
	z M73.4,69.3c-0.2,3.6,0,7.5,0.2,11.1c0.1,2.7,0.1,5.4,0.2,8c0.5-1.3,1-2.6,1.5-3.9l3.8-10.8c-1.6-1.2-3.2-2.3-4.8-3.6
	C74.1,69.9,73.8,69.6,73.4,69.3z M53.4,71.8c-1.5,1-3.1,1.9-4.6,2.8c1.7,2.5,2.4,3.9,3.7,6.6c0.5,1,0.9,2.1,1.4,3.1
	c-0.2-3.1-0.3-6.3-0.4-9.4C53.5,74.5,53.5,72.1,53.4,71.8L53.4,71.8z M47.7,75.4c-3.8,2.2-9.4,5.7-11.8,9.4
	c-3,4.7-3.4,11.8-3.1,17.3c0.2,2,0.7,4.1,1.2,6.1c1.7,7,4,13.8,6.6,20.5c1.2,3.1,2.4,6.5,3.9,9.4c-0.2-1.8-0.3-3.9-0.5-5.8
	c-0.5-5.1-0.8-10.2-1.1-15.4l-0.5-8.7c-0.1-1.5-0.2-3-0.2-4.5c0-0.3,0-0.8,0.2-1c0.1-0.2,0.1-0.1,0.3-0.2c1.1,0.2,0.9,2.5,1,3.5
	l0.3,5.4c0.4,7.5,1,14.9,1.6,22.3c0.5,5.6,1,11.2,1.4,16.9c2.7,0,6.1,0,8.8,0.1c0.3-0.7,0.1-2.1,0.1-2.9l0-5.4
	c0.1-8.9,0.2-18,0-26.9c-0.3-7-0.7-13.9-1.3-20.9c-0.1-1.2-0.4-6.4-0.8-7.3c-1.5-3.5-3.1-7.3-5.1-10.6
	C48.4,76.5,47.9,75.6,47.7,75.4z M80.3,74.5c-1.4,3.9-2.7,7.7-4.1,11.6c-0.6,1.6-1.8,4.4-2.1,6c-0.1,0.5,0,4.4,0,5.2
	c0,3,0.1,6.1,0,9.1c-0.1,8.2-0.6,16.5-0.8,24.7l-0.3,12.2c0,2.1-0.1,5.6-0.3,7.6c3.4,0.1,6.9,0.1,10.3,0.1l0.1-11.9
	c0-3.4,0.2-7,0.1-10.4c-0.1-5.1-0.5-10.2-0.4-15.4c0-1.6,0.1-12.3,0.2-12.7c0.4-0.3,0.6-0.4,1,0c0.5,1.1,0.1,12.9,0.2,14.9
	c0.2,7.2,0.7,15.2,0.2,22.4c3.2-8.1,5-17.3,6.4-25.8c0.9-5.5,1.7-11.4,1.4-17.1c-0.2-3.2-0.8-6-2.1-8.9c-1.7-4-4.4-7.3-7.8-10
	C82,75.6,80.7,74.6,80.3,74.5z M55,80.5c0.1,2.3,0.2,4.5,0.3,6.8c0,0.6,0.2,1.8,0.3,2.5c0.2,2.9,0.4,5.7,0.7,8.6
	c0.5,6.2,0.8,12.4,1,18.7c0.1,7.5,0.1,15.1,0,22.6c0,3.1-0.2,7.5,0,10.5c4,0.2,8.1,0.2,12.2,0.4c0.7,0,1.5,0.1,2.2,0.1l0.3-8.2
	c0.1-3.9,0.2-7.7,0.3-11.6c0.2-6.6,0.6-13.2,0.7-19.8c0.2-10.6,0-21.2-0.6-31.7c-1.1,2.4-2.5,5.7-5.1,6.6c-3.8,1.4-8.5-1-10.8-4
	C56,81.6,55.3,80.7,55,80.5z M37,156.4c-1.5,0.2-3.1,0.4-4.6,0.8c3.9,0.1,7.8,0,11.7,0c1.4,0,2.7,0,4,0
	C45.1,156.2,40.1,156.2,37,156.4z M88,156.8c-1.1,0.1-1.8,0.3-2.9,0.5c2.6,0.1,5.7,0,8.3-0.1c0.8,0,1.8,0,2.6-0.1
	C93.6,156.7,90.5,156.4,88,156.8z"/>
<path class="st1" d="M69.8,37.3c0.6-0.8,0.8-0.9,1.8-1.1c3,0.1,0.8,4.8-1.5,2.2c-2,0.9-3.3,1.9-5.2,2.8c-0.7,0.3-1.3,0.7-1.8,0
	c0-0.2,0-0.4,0.1-0.6c0.1-0.1,4.5-2.4,5-2.6C68.7,37.7,69.2,37.5,69.8,37.3z"/>
<path class="st1" d="M59.5,42.2c-1,0.7-1.8-0.1-2.8-0.5C56,41.4,55,41.2,54.2,41c-1.1-0.3-4.2,0.3-5-0.4c-0.2-0.5,0.2-0.7,0.5-0.9
	c1.9-0.2,4.2-0.3,6,0.4c1.9,0.7,1,0.4,2.3-0.1C59,39.6,60.4,40.8,59.5,42.2z"/>
<path class="st1" d="M67.9,44c-1.7,0.4-2.2-2.2-0.7-3C69.2,41,69.4,43.1,67.9,44z"/>
<path class="st1" d="M55.4,45.3c-1.8-0.2-1.9-2.2-0.2-3C57,42.5,57.1,44.6,55.4,45.3z"/>
<path class="st1" d="M46,48c-0.3,0.2-0.5,0.3-0.8,0.1c-0.5-0.9-0.9-3.8-1-4.9c0.4,0,0.5-0.1,0.8,0.2C45.2,43.9,46,47.9,46,48z"/>
<path class="st1" d="M64.6,51c-1,0.1-1.8-1-1.1-1.9C64.6,49.1,65.3,50.2,64.6,51z"/>
<path class="st1" d="M60.8,51.7c-0.3,0.1-0.5,0-0.8-0.1c-0.4-0.7,0.3-1.6,0.7-2.1c0.4,0,0.5,0,0.8,0.2C62,50.3,61.2,51.2,60.8,51.7z
	"/>
<path class="st1" d="M59.8,58.3c-0.7,0.2-1.6,0.5-1.9-0.4c0-0.2,0-0.2,0.1-0.3c0.7-0.9,7.6-1.6,9-1.7c0.7-0.1,1.4-0.2,1.8,0.5
	c0,0.4-0.2,0.6-0.6,0.7c-1.1,0.2-2.2,0.3-3.3,0.4C63.1,57.7,61.5,58,59.8,58.3z"/>
<path class="st1" d="M51.1,149.4c-0.3,0-0.6,0-0.8-0.2c-0.3-0.5-0.2-11.5-0.2-13c0-1.2-0.1-2.4-0.2-3.7c-0.1-1.1-0.2-2.4-0.2-3.5
	c0-0.2,0.3-0.4,0.5-0.5c0.2,0,0.3,0.1,0.5,0.2c0.2,0.2,0.2,0.5,0.3,0.8c0.3,2.1,0.6,4.2,0.6,6.3c0.2,4.3-0.2,8.8-0.1,13.1
	C51.4,149,51.2,149.2,51.1,149.4z"/>
<path class="st1" d="M48.6,141.3c-0.6,0-0.9-0.2-1-0.8c-0.1-2.1-0.2-4.3-0.2-6.5c0-1.6-0.1-3.2-0.2-4.8c0-0.2,0.1-0.4,0.2-0.5
	c0.6,0,0.9,0,1,0.7c0.3,3.7,0.3,7.5,0.4,11.3C48.9,141,48.7,141.2,48.6,141.3z"/>
<path class="st1" d="M76.5,146.3c-0.3,0-0.4,0-0.7-0.1c-0.1-0.1-0.2-0.3-0.2-0.5c0.1-3.9,0.5-7.8,0.1-11.7c-0.1-0.6-0.1-0.8,0.3-1.3
	c0.3,0,0.5,0,0.7,0.2c0.5,0.7,0.4,5.6,0.4,6.5C77,140.5,77.1,145.5,76.5,146.3z"/>
<path class="st1" d="M78.7,149.2c-0.3,0-1,0-1-0.5c-0.1-3.8,0.3-7.6,0.1-11.3c0-0.6-0.1-1.1,0.2-1.6c0.4,0,0.4,0,0.8,0.1
	c0.9,0.8,0.2,11,0.2,12.8C79,148.9,78.8,149.1,78.7,149.2z"/>
<path class="st1" d="M81.1,149.2c-0.4,0-0.6,0.1-0.9-0.2c-0.3-0.9,0.1-8.8,0-10.3c0-0.2,0.1-0.4,0.1-0.5c0.3,0,1,0,1,0.4
	C81.5,140.2,81.7,148.3,81.1,149.2z"/>
<path class="st1" d="M48.9,148.8c-0.4,0-0.3,0-0.6-0.2c-0.4-0.7-0.5-4-0.5-5.1c0-0.3,0.1-0.5,0.4-0.7c0.4,0,0.5,0,0.8,0.2
	c0.3,0.8,0.5,4,0.5,5C49.3,148.5,49.2,148.7,48.9,148.8z"/>
</svg>
