<?xml version="1.0" encoding="utf-8"?>
<!-- Generator: Adobe Illustrator 27.2.0, SVG Export Plug-In . SVG Version: 6.00 Build 0)  -->
<svg version="1.1" id="Layer_1" xmlns="http://www.w3.org/2000/svg" xmlns:xlink="http://www.w3.org/1999/xlink" x="0px" y="0px"
	 viewBox="0 0 32 32" style="enable-background:new 0 0 32 32;" xml:space="preserve">
<g>
	<path d="M5.3,31.2c-1.6-0.5-1.9-1.7-1.7-3.2C2.2,27.6,2,27.3,2,25.9c0-0.7,0-1.3,0-2c0-1.9,1.6-3.4,3.5-3.5c1.6,0,3.2,0,4.7-0.1
		c0.9-0.1,1.7-0.8,1.8-1.7c0.3-2.2-0.2-4.2-1.7-6C9.7,11.9,9.2,11,9,10C8.7,9.1,8.6,8.1,8.8,7.2c0.1-0.9,0.4-1.9,0.9-2.7
		c0.5-0.8,1.1-1.6,1.9-2.2c0.9-0.7,1.9-1.1,2.9-1.4c1.2-0.3,2.5-0.2,3.7,0.2c0.9,0.3,1.8,0.7,2.6,1.4c0.8,0.7,1.4,1.7,1.9,2.7
		c1.1,2.5,0.7,5.4-1.1,7.6c-1.4,1.8-1.9,3.8-1.5,6.1c0.1,0.8,0.8,1.4,1.6,1.4c1.7,0.1,3.3,0.1,5,0.1c1.6,0,3,1.2,3.2,2.8
		c0.2,1.1,0.1,2.3,0.1,3.5c0,0.6-0.7,1-1.4,1.1c-0.2,0-0.4,0-0.8,0c0.2,1.4-0.1,2.7-1.6,3.2C19.2,31.2,12.2,31.2,5.3,31.2z
		 M19.4,20.5c-0.9-1.7-0.7-3.5-0.4-5.3c0.2-1.3,1.1-2.3,1.9-3.3c1.8-2.3,1.8-5.4,0-7.6C19,2.1,16,1.4,13.4,2.6
		C9.8,4.2,8.7,8.9,11.3,12c2.2,2.6,2.5,5.4,1.5,8.6C14.9,20.5,17.1,20.5,19.4,20.5z M15.9,26.7c4,0,8.1,0,12.1,0
		c0.4,0,0.8,0.1,0.8-0.5c0-0.8,0-1.6,0-2.4c0-1.2-1.3-2.2-2.4-2.2c-6.9,0.1-13.8,0.1-20.7,0c-1.3,0-2.5,1-2.5,2.4c0,0.6,0,1.2,0,1.8
		c0,0.6,0.2,0.8,0.8,0.8C8,26.7,11.9,26.7,15.9,26.7z M4.8,28.1c-0.1,1.7,0,1.9,1.6,1.9c2,0,4,0,5.9,0c4.4,0,8.8,0,13.2,0
		c0.7,0,1.1-0.3,1.2-0.9c0-0.3,0-0.6,0-1C19.4,28.1,12.1,28.1,4.8,28.1z"/>
</g>
</svg>
