<?xml version="1.0" encoding="utf-8"?>
<!-- Generator: Adobe Illustrator 27.2.0, SVG Export Plug-In . SVG Version: 6.00 Build 0)  -->
<svg version="1.1" id="Layer_1" xmlns="http://www.w3.org/2000/svg" xmlns:xlink="http://www.w3.org/1999/xlink" x="0px" y="0px"
	 viewBox="0 0 32 32" style="enable-background:new 0 0 32 32;" xml:space="preserve">
<path d="M15.9,25.8l-0.8-2c-0.1-0.3-0.2-0.5-0.4-0.7c-0.1-0.1-0.1-0.3-0.2-0.4c-1-1.9-3.1-2.9-5.3-2.4c-0.5,0.2-1,0.1-1.5-0.3
	c-1-1-2.2-1.7-3.5-1.9l-0.1,0l-3.1-0.4l0-0.9C1.2,15,2.5,12.9,4.6,11c2.2-1.9,4.5-2.9,6.3-2.8l1.4,0.1l-0.6,1.2c0,0,0,0.1,0,0.1
	c0,0.1-0.1,0.2-0.2,0.4c-0.2,0.4-0.1,1,0.1,1.4c0.2,0.4,0.6,0.6,1.1,0.7c0.2,0,0.3,0,0.3-0.1c0,0,0-0.1,0-0.2
	c-0.2-1.2,0.2-2.1,1.2-2.8l1-0.7l0.6,1.4c0.1,0.1,0.1,0.3,0.2,0.4c0,0,0,0,0,0h0.2c0,0,0,0,0,0c0,0,0.2-0.4,0.3-0.7l0.5-1.2l1,0.9
	c0.9,0.8,1.3,1.6,1.1,2.7c0,0.2,0,0.3,0,0.4c0,0,0,0,0.1,0c0,0,0.1,0,0.2,0c0.6-0.1,1-0.4,1.2-0.8c0.2-0.4,0.2-0.9,0-1.4l-0.1-0.3
	c0-0.1-0.1-0.1-0.1-0.2l-0.6-1.2l1.4-0.1c1.8-0.2,4.1,0.9,6.3,2.8c2.1,1.9,3.4,4,3.4,5.7l0,0.9L30,17.7c-0.3,0-0.6,0.1-0.8,0.1
	c-0.5,0-1,0.1-1.4,0.2c-1.4,0.3-2.5,0.9-3.6,2c-0.4,0.4-1,0.5-1.5,0.3c-2.1-0.5-4.2,0.4-5.2,2.4L15.9,25.8z M10.3,18.3
	c2.3,0,4.5,1.2,5.7,3.1c1.5-2.4,4.3-3.6,7-3c1.3-1.2,2.7-2,4.3-2.3c0.5-0.1,1-0.2,1.4-0.2c-0.4-1.1-1.3-2.4-2.6-3.5
	c-1.2-1.1-2.5-1.8-3.6-2.1c0.1,0.7,0,1.4-0.4,2.1c-0.5,0.9-1.4,1.6-2.5,1.8c-0.8,0.2-1.5,0-2-0.5c-0.4-0.4-0.6-1-0.6-1.6
	c-0.2,0.1-0.5,0.2-0.8,0.3l-0.2,0l-0.5,0c-0.3,0-0.6-0.1-0.8-0.2c0,0.5-0.1,1.1-0.5,1.5c-0.5,0.5-1.2,0.8-2,0.7
	c-1.1-0.2-2-0.8-2.5-1.7c-0.4-0.6-0.5-1.4-0.4-2.2c-1.1,0.3-2.4,1.1-3.6,2.2c-1.3,1.1-2.3,2.5-2.6,3.5l1.4,0.2
	c1.6,0.3,3.1,1.1,4.4,2.3C9.4,18.3,9.9,18.3,10.3,18.3z M22.8,18.6C22.8,18.6,22.8,18.6,22.8,18.6C22.8,18.6,22.8,18.6,22.8,18.6z"
	/>
</svg>
