<?xml version="1.0" encoding="utf-8"?>
<!-- Generator: Adobe Illustrator 27.2.0, SVG Export Plug-In . SVG Version: 6.00 Build 0)  -->
<svg version="1.1" id="Layer_1" xmlns="http://www.w3.org/2000/svg" xmlns:xlink="http://www.w3.org/1999/xlink" x="0px" y="0px"
	 viewBox="0 0 32 32" style="enable-background:new 0 0 32 32;" xml:space="preserve">
<path d="M29,25.9c0,0.4-0.8,1-1.8,1c-0.1,0-0.1,0-0.2,0c1.8-1.1,2.8-2.4,2.8-3.9c0-0.3-0.1-0.6-0.2-1c-0.1-0.4-0.5-0.7-0.9-0.7H15
	v-1.6l6,0.1c0.3,0,0.6-0.2,0.8-0.4c0.2-0.3,0.2-0.6,0.1-0.9L14.9,3.8c-0.2-0.4-0.6-0.6-1.1-0.5c-0.3,0.1-0.6,0.3-0.7,0.6l0,0
	L8.8,16.4C8.7,16.7,8.8,17,9,17.2c0.2,0.3,0.5,0.4,0.8,0.4h3.4v3.7H4.5c-0.4,0-0.8,0.3-0.9,0.7c-0.1,0.3-0.2,0.7-0.2,1
	c0,1.4,1.1,2.8,2.3,3.7c-0.3,0.1-0.6,0.1-0.9,0.1c-1,0-1.8-0.5-1.8-1H1.1c0,1.6,1.6,2.9,3.7,2.9c1.1,0,2.1-0.4,2.8-0.9
	c0.7,0.6,1.7,0.9,2.8,0.9c1.1,0,2.1-0.4,2.8-0.9c0.7,0.6,1.7,0.9,2.8,0.9c1.1,0,2.1-0.4,2.8-0.9c0.7,0.6,1.7,0.9,2.8,0.9
	c1.1,0,2.1-0.4,2.8-0.9c0.7,0.6,1.7,0.9,2.8,0.9c2.1,0,3.7-1.3,3.7-2.9H29z M15,8.4l4.5,9.5L15,17.9V8.4z M11.1,15.7l2-5.9v5.9H11.1
	z M24.4,24.9c-0.5,0-1,0.4-1,1c0,0.4-0.8,1-1.8,1c-1,0-1.8-0.5-1.8-1c0-0.5-0.4-1-1-1s-1,0.4-1,1c0,0.4-0.8,1-1.8,1
	c-1,0-1.8-0.5-1.8-0.9c0,0,0,0,0-0.1c0-0.5-0.4-1-1-1s-1,0.4-1,1c0,0,0,0,0,0.1c-0.1,0.4-0.8,0.9-1.8,0.9c-1,0-1.8-0.5-1.8-1
	c0-0.5-0.4-1-1-1c-0.3,0-0.5,0.1-0.7,0.3c-0.9-0.7-1.4-1.5-1.6-2h22.4c-0.2,0.8-1.1,1.7-2.5,2.4C25.1,25.2,24.8,24.9,24.4,24.9z"/>
</svg>
