<?xml version="1.0" encoding="utf-8"?>
<!-- Generator: Adobe Illustrator 27.2.0, SVG Export Plug-In . SVG Version: 6.00 Build 0)  -->
<svg version="1.1" id="Layer_1" xmlns="http://www.w3.org/2000/svg" xmlns:xlink="http://www.w3.org/1999/xlink" x="0px" y="0px"
	 viewBox="0 0 32 32" style="enable-background:new 0 0 32 32;" xml:space="preserve">
<g>
	<path d="M28.8,16l-0.2-0.9c-0.4-2.2-0.8-4.5-2.6-6.3c-0.7-0.7-1.4-1.1-2.4-1.5C23,7,21.9,6.8,20.9,7c-1.3-1.2-3-1.9-4.9-1.9
		c-1.9,0-3.6,0.7-4.9,1.9c-1-0.2-2,0-2.8,0.3c-1,0.3-1.7,0.8-2.4,1.5c-1.8,1.8-2.2,4.1-2.6,6.3L3.2,16c-0.2,0.9,0,1.7,0.5,2.4
		c0.5,0.7,1.2,1.2,2.1,1.4c0.2,0,0.4,0.1,0.6,0.1c0.3,0,0.7-0.1,1-0.2l0,0.2c-0.3,1.8,0.2,3.5,1.4,4.9s2.8,2.1,4.6,2.1h5.4
		c1.8,0,3.5-0.8,4.6-2.1c1.2-1.4,1.7-3.1,1.4-4.9l0-0.2c0.3,0.1,0.7,0.2,1,0.2c0.2,0,0.4,0,0.6-0.1c0.9-0.2,1.6-0.7,2.1-1.4
		C28.8,17.7,29,16.8,28.8,16z M7.7,16.7l0,0.1c-0.1,0.7-0.9,1.2-1.6,1.1c-0.4-0.1-0.7-0.3-0.9-0.6C5,17.1,5,16.7,5,16.3l0.2-0.9
		c0.4-2.1,0.7-3.9,2.1-5.4c0.5-0.5,0.9-0.8,1.6-1C9.2,9,9.4,8.9,9.5,8.9c-0.4,0.7-0.7,1.6-0.8,2.4l0,0.2c-0.1,0.6-0.2,1.3-0.3,2
		c0,0,0,0,0,0l-0.3,1.7C8,15.8,7.8,16.5,7.7,16.7z M16,22.1L16,22.1C15.9,22,15.8,22,15.7,22c-0.6-0.2-0.9-0.6-0.9-1.1
		c0,0,0-0.1,0.1-0.1c0.4,0,0.8,0,1.1,0c0.4,0,0.8,0,1.1,0c0,0,0.1,0.1,0.1,0.1c0,0.1,0,0.2,0,0.4C17,21.7,16.6,21.9,16,22.1z
		 M21.8,23.5c-0.8,0.9-1.9,1.5-3.2,1.5h-2.2l0-1.8c0-0.1,0-0.2,0-0.2c0.7-0.2,1.3-0.6,1.6-1.5c0.1-0.3,0.2-0.6,0-1
		c-0.2-0.5-0.5-0.7-1-0.7c-0.8,0-1.5,0-2.3,0c-0.3,0-0.6,0.1-0.8,0.3c-0.2,0.2-0.3,0.5-0.3,0.8c0,1,0.6,1.8,1.6,2.1
		c0.1,0,0.1,0,0.2,0.1c0,0.1,0,0.2,0,0.2l0,1.8h-2.2c-1.2,0-2.4-0.5-3.2-1.5c-0.8-0.9-1.1-2.1-0.9-3.3l0.7-4.6c0,0,0-0.1,0-0.1
		c0.1-0.5,0.2-1.1,0.3-1.7l0.3-1.9c0-0.1,0-0.1,0-0.2c0.2-0.9,0.5-1.5,0.7-2C12.2,8.1,14,7,16,7c2,0,3.8,1.1,4.8,2.8c0,0,0,0,0,0.1
		c0.1,0.1,0.1,0.3,0.2,0.4c0.2,0.4,0.3,0.9,0.5,1.5l0.5,2.8c0,0.3,0.1,0.5,0.1,0.7l0.8,4.9C23,21.4,22.6,22.6,21.8,23.5z M26.8,17.4
		c-0.2,0.3-0.5,0.5-0.9,0.6c-0.7,0.1-1.5-0.3-1.6-1.1c0,0,0-0.1,0-0.2c-0.1-0.3-0.3-1.1-0.4-1.5c0-0.1,0-0.1,0-0.2l-0.1-0.8
		c0-0.2-0.1-0.4-0.1-0.6c-0.1-0.8-0.2-1.6-0.4-2.2c0,0,0,0,0,0c-0.1-0.9-0.4-1.7-0.8-2.4c0.2,0,0.4,0.1,0.6,0.2
		c0.7,0.3,1.2,0.5,1.6,1c1.4,1.4,1.7,3.3,2.1,5.4c0.1,0.3,0.1,0.6,0.2,0.9C27,16.7,27,17.1,26.8,17.4z"/>
	<path d="M14.1,13c-0.4-0.3-0.8-0.4-1.3-0.4c-0.9,0.1-1.4,0.8-1.5,1.7c0,0.1,0,0.2,0,0.4l0,0.1c0,0.3,0.2,0.5,0.5,0.5
		s0.5-0.2,0.5-0.5l0-0.2c0-0.1,0-0.2,0-0.3c0-0.4,0.2-0.7,0.6-0.7c0.2,0,0.3,0,0.5,0.2c0.1,0.1,0.2,0.3,0.3,0.4c0,0.1,0,0.2,0,0.3
		l0,0.2c0,0.3,0.2,0.5,0.5,0.5c0,0,0,0,0,0c0.3,0,0.5-0.2,0.5-0.5l0-0.2c0-0.2,0-0.3,0-0.5C14.7,13.7,14.5,13.3,14.1,13z"/>
	<path d="M19.2,12.7c-0.4-0.1-0.9,0.1-1.3,0.4c-0.4,0.3-0.6,0.7-0.6,1.2c0,0.2,0,0.3,0,0.5l0,0.2c0,0.3,0.2,0.5,0.5,0.5c0,0,0,0,0,0
		c0.3,0,0.5-0.2,0.5-0.5l0-0.2c0-0.1,0-0.2,0-0.3c0-0.2,0.1-0.3,0.3-0.4c0.2-0.1,0.3-0.2,0.5-0.2c0.4,0.1,0.6,0.3,0.6,0.7
		c0,0.1,0,0.2,0,0.3l0,0.2c0,0.3,0.2,0.5,0.5,0.5s0.5-0.2,0.5-0.5l0-0.1c0-0.1,0-0.2,0-0.4C20.6,13.4,20,12.8,19.2,12.7z"/>
</g>
</svg>
