<?xml version="1.0" encoding="utf-8"?>
<!-- Generator: Adobe Illustrator 27.2.0, SVG Export Plug-In . SVG Version: 6.00 Build 0)  -->
<svg version="1.1" id="Layer_1" xmlns="http://www.w3.org/2000/svg" xmlns:xlink="http://www.w3.org/1999/xlink" x="0px" y="0px"
	 viewBox="0 0 32 32" style="enable-background:new 0 0 32 32;" xml:space="preserve">
<g>
	<path d="M9.5,13.1c-1.6,0-2.9,1.3-2.9,2.9c0,0.3,0.2,0.5,0.5,0.5s0.5-0.2,0.5-0.5c0-1,0.9-1.9,1.9-1.9c0.3,0,0.5-0.2,0.5-0.5
		S9.8,13.1,9.5,13.1z"/>
	<path d="M22.6,13.1c-1.6,0-2.9,1.3-2.9,2.9c0,0.3,0.2,0.5,0.5,0.5s0.5-0.2,0.5-0.5c0-1,0.8-1.9,1.9-1.9c0.3,0,0.5-0.2,0.5-0.5
		S22.8,13.1,22.6,13.1z"/>
	<path d="M29.6,15h-0.9c-0.5-2.8-3-5-5.9-5s-5.4,2.2-5.9,5h-1.4c-0.5-2.8-3-5-5.9-5s-5.4,2.2-5.9,5H2.4c-0.5,0-1,0.4-1,1s0.4,1,1,1
		h1.2C4,19.8,6.5,22,9.5,22s5.5-2.3,6-5.2h1.3c0.4,2.9,2.9,5.2,6,5.2s5.5-2.3,6-5.2h0.9c0.5,0,1-0.4,1-1S30.1,15,29.6,15z M9.5,20.1
		c-2.3,0-4.1-1.9-4.1-4.1c0-2.3,1.9-4.1,4.1-4.1c2.3,0,4.1,1.9,4.1,4.1C13.7,18.3,11.8,20.1,9.5,20.1z M22.8,20.1
		c-2.3,0-4.1-1.9-4.1-4.1c0-2.3,1.9-4.1,4.1-4.1s4.1,1.9,4.1,4.1C26.9,18.3,25,20.1,22.8,20.1z"/>
</g>
</svg>
