<?xml version="1.0" encoding="utf-8"?>
<!-- Generator: Adobe Illustrator 27.2.0, SVG Export Plug-In . SVG Version: 6.00 Build 0)  -->
<svg version="1.1" id="Layer_1" xmlns="http://www.w3.org/2000/svg" xmlns:xlink="http://www.w3.org/1999/xlink" x="0px" y="0px"
	 viewBox="0 0 32 32" style="enable-background:new 0 0 32 32;" xml:space="preserve">
<g>
	<path d="M28.9,14.4L16,5.3l-3.4,2.4V5.9H9v4.4l-5.9,4.1c-0.4,0.3-0.5,0.8-0.2,1.2c0.3,0.4,0.8,0.5,1.2,0.2L5,15.3v11.4h21.9V15.2
		l0.9,0.6C28,16,28.2,16,28.3,16c0.3,0,0.6-0.1,0.7-0.4C29.4,15.2,29.3,14.7,28.9,14.4z M25.1,24.9H6.8V14.2c0-0.1,0-0.1,0-0.2
		L16,7.5l9.1,6.4V24.9z"/>
	<rect x="18.8" y="16.1" width="3.6" height="4.3"/>
</g>
</svg>
