<?xml version="1.0" encoding="utf-8"?>
<!-- Generator: Adobe Illustrator 27.2.0, SVG Export Plug-In . SVG Version: 6.00 Build 0)  -->
<svg version="1.1" id="Layer_1" xmlns="http://www.w3.org/2000/svg" xmlns:xlink="http://www.w3.org/1999/xlink" x="0px" y="0px"
	 viewBox="0 0 32 32" style="enable-background:new 0 0 32 32;" xml:space="preserve">
<path d="M17,28.6c-2.5,0-4.9-0.8-7-2.2c-2.7-1.9-4.5-4.7-5.1-7.9S5,12,6.9,9.3c1.9-2.7,4.7-4.5,7.9-5.1C15.6,4.1,16.4,4,17.1,4
	c0.4,0,0.8,0.3,0.9,0.7s0,0.8-0.4,1.1c-4.3,2.9-6,8-3.9,11.9c0,0,0,0,0,0c2.2,4.2,7.9,5.5,12.9,3.1c0.4-0.2,0.8-0.1,1.1,0.2
	c0.3,0.3,0.4,0.7,0.2,1.1c-1.8,3.4-5,5.8-8.7,6.4C18.5,28.6,17.7,28.6,17,28.6z M14.1,6.3C11.8,7,9.9,8.4,8.5,10.4
	c-1.6,2.3-2.2,5-1.7,7.8c1,5.6,6.4,9.4,12.1,8.4c2.2-0.4,4.2-1.5,5.7-3.1c-5.1,1.2-10.3-0.7-12.5-5l0,0C10,14.7,11,9.8,14.1,6.3z"/>
</svg>
