<?xml version="1.0" encoding="utf-8"?>
<!-- Generator: Adobe Illustrator 27.2.0, SVG Export Plug-In . SVG Version: 6.00 Build 0)  -->
<svg version="1.1" id="Layer_1" xmlns="http://www.w3.org/2000/svg" xmlns:xlink="http://www.w3.org/1999/xlink" x="0px" y="0px"
	 viewBox="0 0 32 32" style="enable-background:new 0 0 32 32;" xml:space="preserve">
<path d="M27.8,12.9c0-3.7-1.7-6.8-3.9-7.3c-1.3-2.3-3.7-3.7-6.4-3.7c-3.8,0-6.9,2.9-7.3,6.7c-3.3,0.1-6,2.8-6,6.2
	c0,3.4,2.8,6.2,6.2,6.2c0.6,0,1.2-0.1,1.8-0.3c0.6,2.2,2.6,3.9,5.2,4.5v4c0,0.5,0.4,1,1,1s1-0.4,1-1v-3.8c0.1,0,0.1,0,0.2,0
	c4.1,0,7.5-2.8,7.5-6.2c0-0.5-0.1-0.9-0.2-1.4C27.4,16.4,27.8,14.7,27.8,12.9z M24.9,17.1c-0.2,0.2-0.2,0.6-0.1,0.8
	c0.1,0.4,0.2,0.8,0.2,1.2c0,2.4-2.5,4.3-5.6,4.3c-0.1,0-0.1,0-0.2,0v-8.6l2.8-1.3c0.5-0.2,0.7-0.8,0.4-1.3c-0.2-0.5-0.8-0.7-1.3-0.4
	l-2,0.9v-2.2c0-0.5-0.4-1-1-1s-1,0.4-1,1v6.1l-5.9-2.8c-0.5-0.2-1,0-1.3,0.4c-0.2,0.5,0,1,0.4,1.3l6.7,3.2v4.4
	c-2-0.6-3.4-2.1-3.5-3.9c0-0.3-0.2-0.6-0.5-0.8c-0.1-0.1-0.3-0.1-0.5-0.1c-0.2,0-0.3,0-0.5,0.1c-0.7,0.4-1.3,0.5-2,0.5
	c-2.4,0-4.3-1.9-4.3-4.3s1.9-4.3,4.3-4.3c0.2,0,0.4,0,0.7,0.1c0.3,0,0.6,0,0.8-0.2c0.2-0.2,0.3-0.5,0.3-0.8c0,0,0-0.1,0-0.1
	c0-0.1,0-0.2,0-0.2c0-3,2.4-5.4,5.4-5.4c2.1,0,4,1.2,4.9,3.1c0.2,0.3,0.5,0.5,0.8,0.5c1.3,0,2.7,2.3,2.7,5.5
	C25.9,14.5,25.5,16.1,24.9,17.1z"/>
</svg>
